<svg width="143" height="32" viewBox="0 0 143 32" fill="none" xmlns="http://www.w3.org/2000/svg">
<path d="M7.59553 21.22V18.1H18.9155V21.22H15.6755C15.6489 21.9934 15.4889 22.7134 15.1955 23.38C14.9022 24.0467 14.5022 24.6334 13.9955 25.14C13.4889 25.6467 12.8889 26.0467 12.1955 26.34C11.5289 26.6334 10.8089 26.7934 10.0355 26.82H6.55553C5.75553 26.82 4.99553 26.6734 4.27553 26.38C3.5822 26.0867 2.96887 25.6734 2.43553 25.14C1.92887 24.6334 1.52887 24.02 1.23553 23.3C0.942199 22.6067 0.795532 21.86 0.795532 21.06V15.98C0.795532 15.82 0.808866 15.58 0.835532 15.26C0.888866 14.9134 1.00887 14.5667 1.19553 14.22C1.40887 13.8467 1.71553 13.5267 2.11553 13.26C2.5422 12.9934 3.1422 12.8467 3.91553 12.82V21.06C3.91553 21.8067 4.16887 22.4334 4.67553 22.94C5.1822 23.4467 5.80887 23.7 6.55553 23.7H9.95553C10.6489 23.7 11.2355 23.46 11.7155 22.98C12.2222 22.5 12.5022 21.9134 12.5555 21.22H7.59553Z" fill="white"/>
<path d="M25.0621 14.54C25.0621 15.5267 25.4088 16.3667 26.1021 17.06C26.7954 17.7534 27.6354 18.1 28.6221 18.1H29.0221V21.22H28.6221C27.6088 21.22 26.6488 21.0067 25.7421 20.58C24.8621 20.1534 24.1154 19.5667 23.5021 18.82C22.8888 19.5667 22.1421 20.1534 21.2621 20.58C20.3821 21.0067 19.4221 21.22 18.3821 21.22H18.0221V18.1H18.3821C19.3688 18.1 20.2088 17.7534 20.9021 17.06C21.5954 16.3667 21.9421 15.5267 21.9421 14.54V8.14002C21.9421 7.98002 21.9554 7.74002 21.9821 7.42002C22.0354 7.07336 22.1554 6.74002 22.3421 6.42003C22.5554 6.07336 22.8754 5.76669 23.3021 5.50003C23.7288 5.23336 24.3154 5.08669 25.0621 5.06002V14.54Z" fill="white"/>
<path d="M34.0315 10.22C33.4715 10.22 33.0181 10.0467 32.6715 9.70002C32.3248 9.35336 32.1515 8.90002 32.1515 8.34002C32.1515 7.88669 32.3248 7.47336 32.6715 7.10002C33.0181 6.70002 33.4715 6.50002 34.0315 6.50002C34.4848 6.50002 34.8848 6.70002 35.2315 7.10002C35.5781 7.47336 35.7515 7.88669 35.7515 8.34002C35.7515 8.90002 35.5781 9.35336 35.2315 9.70002C34.8848 10.0467 34.4848 10.22 34.0315 10.22ZM30.3115 10.22C29.7515 10.22 29.2981 10.0467 28.9515 9.70002C28.6048 9.35336 28.4315 8.90002 28.4315 8.34002C28.4315 7.88669 28.6048 7.47336 28.9515 7.10002C29.2981 6.70002 29.7515 6.50002 30.3115 6.50002C30.7648 6.50002 31.1781 6.70002 31.5515 7.10002C31.9515 7.47336 32.1515 7.88669 32.1515 8.34002C32.1515 8.90002 31.9515 9.35336 31.5515 9.70002C31.1781 10.0467 30.7648 10.22 30.3115 10.22ZM36.7115 14.54C36.7115 15.5267 37.0581 16.3667 37.7515 17.06C38.4448 17.7534 39.2848 18.1 40.2715 18.1H41.8315V21.22H40.2715C39.2581 21.22 38.2981 21.02 37.3915 20.62C36.4848 20.1934 35.7248 19.6067 35.1115 18.86C34.4981 19.58 33.7515 20.1534 32.8715 20.58C31.9915 21.0067 31.0448 21.22 30.0315 21.22H28.4715V18.1H30.0315C31.0181 18.1 31.8581 17.7534 32.5515 17.06C33.2448 16.3667 33.5915 15.5267 33.5915 14.54C33.5915 14.38 33.6048 14.14 33.6315 13.82C33.6848 13.4734 33.8048 13.1267 33.9915 12.78C34.2048 12.4067 34.5115 12.0867 34.9115 11.82C35.3381 11.5534 35.9381 11.4067 36.7115 11.38V14.54Z" fill="white"/>
<path d="M45.034 23.42C45.594 23.42 46.0473 23.5934 46.394 23.94C46.7406 24.3134 46.914 24.78 46.914 25.34C46.914 25.7934 46.7406 26.18 46.394 26.5C46.0473 26.8467 45.594 27.02 45.034 27.02C44.5806 27.02 44.154 26.8467 43.754 26.5C43.3806 26.18 43.194 25.7934 43.194 25.34C43.194 24.78 43.3806 24.3134 43.754 23.94C44.154 23.5934 44.5806 23.42 45.034 23.42ZM48.714 23.5C49.274 23.5 49.7273 23.6734 50.074 24.02C50.4206 24.3934 50.594 24.86 50.594 25.42C50.594 25.8734 50.4206 26.26 50.074 26.58C49.7273 26.9267 49.274 27.1 48.714 27.1C48.2606 27.1 47.834 26.9267 47.434 26.58C47.0606 26.26 46.874 25.8734 46.874 25.42C46.874 24.86 47.0606 24.3934 47.434 24.02C47.834 23.6734 48.2606 23.5 48.714 23.5ZM49.274 14.54C49.274 15.5267 49.6206 16.3667 50.314 17.06C51.0073 17.7534 51.8473 18.1 52.834 18.1H54.394V21.22H52.834C51.8206 21.22 50.8606 21.02 49.954 20.62C49.0473 20.1934 48.2873 19.6067 47.674 18.86C47.0606 19.58 46.314 20.1534 45.434 20.58C44.554 21.0067 43.6073 21.22 42.594 21.22H41.034V18.1H42.594C43.5806 18.1 44.4206 17.7534 45.114 17.06C45.8073 16.3667 46.154 15.5267 46.154 14.54C46.154 14.38 46.1673 14.14 46.194 13.82C46.2473 13.4734 46.3673 13.1267 46.554 12.78C46.7673 12.4067 47.074 12.0867 47.474 11.82C47.9006 11.5534 48.5006 11.4067 49.274 11.38V14.54Z" fill="white"/>
<path d="M53.6365 21.22V18.1H57.1565C57.9565 18.1 58.6631 17.86 59.2765 17.38C59.9165 16.8734 60.3431 16.2467 60.5565 15.5V15.46C60.6365 15.1934 60.6765 14.8867 60.6765 14.54C60.6765 13.5534 60.3298 12.7134 59.6365 12.02C58.9431 11.3267 58.1031 10.98 57.1165 10.98H57.0365C56.1298 10.9534 55.4631 10.6467 55.0365 10.06C54.6098 9.44669 54.3965 8.71336 54.3965 7.86002H67.8365C67.8365 8.71336 67.5298 9.44669 66.9165 10.06C66.3031 10.6734 65.5698 10.98 64.7165 10.98H62.7565C63.0765 11.5134 63.3298 12.0734 63.5165 12.66C63.7031 13.2467 63.7965 13.8734 63.7965 14.54C63.7965 14.9667 63.7565 15.38 63.6765 15.78C63.7565 16.42 64.0231 16.9667 64.4765 17.42C64.9565 17.8467 65.5298 18.0734 66.1965 18.1H68.8765V21.22H66.1965C65.3431 21.1934 64.5431 21.0067 63.7965 20.66C63.0765 20.2867 62.4498 19.7934 61.9165 19.18C61.3031 19.82 60.5831 20.3267 59.7565 20.7C58.9298 21.0467 58.0498 21.22 57.1165 21.22H53.6365Z" fill="white"/>
<path d="M88.473 14.54C88.473 15.4734 88.2997 16.34 87.953 17.14C87.6064 17.94 87.1264 18.6467 86.513 19.26C85.9264 19.8734 85.2197 20.3534 84.393 20.7C83.593 21.0467 82.7397 21.22 81.833 21.22H68.033V18.1H81.833C82.8197 18.1 83.6464 17.7534 84.313 17.06C85.0064 16.3667 85.3664 15.5267 85.393 14.54C85.393 14.38 85.4064 14.14 85.433 13.82C85.4597 13.4734 85.5664 13.1267 85.753 12.78C85.9664 12.4067 86.273 12.0867 86.673 11.82C87.0997 11.5534 87.6997 11.4067 88.473 11.38V14.54Z" fill="white"/>
<path d="M90.914 8.66002C90.914 8.26002 90.994 7.84669 91.154 7.42002C91.3406 6.99336 91.5673 6.60669 91.834 6.26002C92.1273 5.88669 92.4606 5.58002 92.834 5.34002C93.234 5.07336 93.634 4.92669 94.034 4.90002V17.46C94.034 17.86 93.9406 18.2734 93.754 18.7C93.594 19.1267 93.3673 19.5267 93.074 19.9C92.8073 20.2467 92.474 20.5534 92.074 20.82C91.7006 21.06 91.314 21.1934 90.914 21.22V8.66002Z" fill="white"/>
<path fill-rule="evenodd" clip-rule="evenodd" d="M111.995 1.96077C109.38 4.57513 109.38 8.81385 111.995 11.4282L115.961 15.3946L125.429 5.92715L121.462 1.96077C118.848 -0.65359 114.609 -0.65359 111.995 1.96077ZM140.252 2.7412C137.648 0.137489 133.427 0.137489 130.823 2.7412L112.246 21.3182C110.575 22.9888 110.575 25.6973 112.246 27.3679L115.625 30.747C117.296 32.4176 120.004 32.4176 121.675 30.747L123.079 29.3428C123.823 29.7546 124.779 29.6447 125.41 29.0133C126.042 28.3818 126.152 27.4262 125.74 26.682L135.517 16.9044C136.266 17.3356 137.238 17.2313 137.878 16.5914C138.518 15.9516 138.622 14.9791 138.191 14.2307L140.252 12.1701C142.855 9.56637 142.855 5.34491 140.252 2.7412Z" fill="url(#paint0_radial_36_121)"/>
<path fill-rule="evenodd" clip-rule="evenodd" d="M111.995 1.96077C109.38 4.57513 109.38 8.81385 111.995 11.4282L115.961 15.3946L125.429 5.92715L121.462 1.96077C118.848 -0.65359 114.609 -0.65359 111.995 1.96077ZM140.252 2.7412C137.648 0.137489 133.427 0.137489 130.823 2.7412L112.246 21.3182C110.575 22.9888 110.575 25.6973 112.246 27.3679L115.625 30.747C117.296 32.4176 120.004 32.4176 121.675 30.747L123.079 29.3428C123.823 29.7546 124.779 29.6447 125.41 29.0133C126.042 28.3818 126.152 27.4262 125.74 26.682L135.517 16.9044C136.266 17.3356 137.238 17.2313 137.878 16.5914C138.518 15.9516 138.622 14.9791 138.191 14.2307L140.252 12.1701C142.855 9.56637 142.855 5.34491 140.252 2.7412Z" fill="white" fill-opacity="0.9"/>
<defs>
<radialGradient id="paint0_radial_36_121" cx="0" cy="0" r="1" gradientUnits="userSpaceOnUse" gradientTransform="translate(138.25 -1.89449) rotate(122.978) scale(40.4045 38.8043)">
<stop stop-color="#E1E1E1"/>
<stop offset="1" stop-color="#5A5A5A"/>
</radialGradient>
</defs>
</svg>
